<?xml version="1.0" encoding="UTF-8" standalone="no"?>
<svg
   xmlns:dc="http://purl.org/dc/elements/1.1/"
   xmlns:cc="http://creativecommons.org/ns#"
   xmlns:rdf="http://www.w3.org/1999/02/22-rdf-syntax-ns#"
   xmlns:svg="http://www.w3.org/2000/svg"
   xmlns="http://www.w3.org/2000/svg"
   xmlns:sodipodi="http://sodipodi.sourceforge.net/DTD/sodipodi-0.dtd"
   xmlns:inkscape="http://www.inkscape.org/namespaces/inkscape"
   id="android-logo-desktop"
   class="icon--svg header-default__wordmark-icon header-default__drawer-logo-icon logo-android__wordmark-icon  "
   enable-background="new 0 0 898 160"
   viewBox="0 0 4096 4096"
   version="1.1"
   sodipodi:docname="android-logo.svg"
   width="4096"
   height="4096"
   inkscape:version="0.92.2 (5c3e80d, 2017-08-06)"
   inkscape:export-filename="G:\Users\suitedoalex\sites\android-logo-0.png"
   inkscape:export-xdpi="96"
   inkscape:export-ydpi="96">
  <metadata
     id="metadata43">
    <rdf:RDF>
      <cc:Work
         rdf:about="">
        <dc:format>image/svg+xml</dc:format>
        <dc:type
           rdf:resource="http://purl.org/dc/dcmitype/StillImage" />
        <dc:title></dc:title>
      </cc:Work>
    </rdf:RDF>
  </metadata>
  <defs
     id="defs41" />
  <sodipodi:namedview
     pagecolor="#ffffff"
     bordercolor="#666666"
     borderopacity="1"
     objecttolerance="10"
     gridtolerance="10"
     guidetolerance="10"
     inkscape:pageopacity="0"
     inkscape:pageshadow="2"
     inkscape:window-width="1600"
     inkscape:window-height="837"
     id="namedview39"
     showgrid="false"
     inkscape:zoom="0.056568542"
     inkscape:cx="8873.8022"
     inkscape:cy="-173.2443"
     inkscape:window-x="-8"
     inkscape:window-y="-8"
     inkscape:window-maximized="1"
     inkscape:current-layer="android-logo-desktop" />
  <rect
     style="fill:none;stroke-width:7.0986371"
     x="131.36792"
     y="323.03113"
     width="3833.2642"
     height="3449.9377"
     id="rect2"
     inkscape:export-filename="G:\Users\suitedoalex\sites\android-logo-9.png"
     inkscape:export-xdpi="10.017572"
     inkscape:export-ydpi="10.017572" />
  <path
     d="m 800.05975,2984.3112 c -75.95542,0 -127.06561,59.6285 -127.06561,136.2938 0,76.6653 51.11019,136.2939 127.06561,136.2939 75.9554,0 127.0656,-59.6286 127.0656,-136.2939 0,-76.6653 -51.1102,-136.2938 -127.0656,-136.2938 m -17.03678,-84.4738 c 61.04818,0 112.15838,31.234 136.29378,65.3074 v -56.7891 h 93.70205 v 425.2084 h -71.69615 c -12.0677,0 -21.2961,-9.9381 -21.2961,-21.2959 v -35.4931 c -24.1352,34.0734 -74.5356,65.3074 -136.29377,65.3074 -116.41766,0 -205.15059,-99.3808 -205.15059,-220.7676 0,-121.3867 88.02312,-221.4775 204.44078,-221.4775"
     id="path4"
     inkscape:connector-curvature="0"
     style="stroke-width:7.0986371"
     inkscape:export-filename="G:\Users\suitedoalex\sites\android-logo-9.png"
     inkscape:export-xdpi="10.017572"
     inkscape:export-ydpi="10.017572" />
  <path
     d="m 1119.4984,2908.3557 h 93.702 v 57.4991 c 25.5552,-42.5918 73.8258,-66.0174 129.1953,-66.0174 98.6711,0 162.5588,69.5667 162.5588,177.466 v 256.2607 h -71.6963 c -12.0677,0 -21.2959,-9.9381 -21.2959,-21.2959 v -219.3478 c 0,-67.4372 -34.0734,-107.8993 -88.7329,-107.8993 -61.7582,0 -110.029,48.2707 -110.029,139.1332 v 209.4098 h -71.6962 c -12.0677,0 -21.2959,-9.9381 -21.2959,-21.2959 v -403.9125 z"
     id="path6"
     inkscape:connector-curvature="0"
     style="stroke-width:7.0986371"
     inkscape:export-filename="G:\Users\suitedoalex\sites\android-logo-9.png"
     inkscape:export-xdpi="10.017572"
     inkscape:export-ydpi="10.017572" />
  <path
     d="m 1800.2578,2984.3112 c -75.9555,0 -127.0657,59.6285 -127.0657,136.2938 0,76.6653 51.1102,136.2939 127.0657,136.2939 75.9554,0 127.0656,-59.6286 127.0656,-136.2939 0,-76.6653 -51.1102,-136.2938 -127.0656,-136.2938 m -17.0368,-84.4738 c 61.0483,0 112.1585,31.234 136.2938,65.3074 v -269.7481 h 93.7021 v 638.1674 h -71.6963 c -12.0677,0 -21.2959,-9.9381 -21.2959,-21.2959 v -35.4931 c -24.1354,34.0734 -74.5356,65.3074 -136.2938,65.3074 -116.4176,0 -205.1506,-99.3808 -205.1506,-220.7676 0,-121.3867 88.023,-221.4775 204.4407,-221.4775"
     id="path8"
     inkscape:connector-curvature="0"
     style="stroke-width:7.0986371"
     inkscape:export-filename="G:\Users\suitedoalex\sites\android-logo-9.png"
     inkscape:export-xdpi="10.017572"
     inkscape:export-ydpi="10.017572" />
  <path
     d="m 2119.6965,2908.3557 h 93.702 v 75.9555 c 16.3268,-48.2707 63.8877,-80.2146 112.1584,-80.2146 12.0677,0 24.1354,0.7098 36.2031,3.5493 v 95.8316 c -16.3269,-4.9691 -29.8143,-7.8084 -46.8511,-7.8084 -53.2398,0 -102.2204,45.4311 -102.2204,129.9049 v 207.2803 h -71.6961 c -12.0677,0 -21.2959,-9.9381 -21.2959,-21.296 z"
     id="path10"
     inkscape:connector-curvature="0"
     style="stroke-width:7.0986371"
     inkscape:export-filename="G:\Users\suitedoalex\sites\android-logo-9.png"
     inkscape:export-xdpi="10.017572"
     inkscape:export-ydpi="10.017572" />
  <path
     d="m 2613.7616,3254.7692 c 74.5357,0 127.7755,-58.9186 127.7755,-134.1642 0,-75.9554 -52.53,-134.1643 -127.7755,-134.1643 -75.9554,0 -128.4853,58.9188 -128.4853,134.1643 0.7098,75.9554 53.2397,134.1642 128.4853,134.1642 m 0,87.3133 c -125.646,0 -222.8973,-97.9612 -222.8973,-220.7676 0,-123.5163 97.2513,-221.4775 222.8973,-221.4775 125.6459,0 222.8972,97.9612 222.8972,221.4775 0,122.8064 -96.5415,220.7676 -222.8972,220.7676"
     id="path12"
     inkscape:connector-curvature="0"
     style="stroke-width:7.0986371"
     inkscape:export-filename="G:\Users\suitedoalex\sites\android-logo-9.png"
     inkscape:export-xdpi="10.017572"
     inkscape:export-ydpi="10.017572" />
  <path
     d="m 2912.6142,2908.3557 h 93.702 v 425.2084 h -71.6963 c -12.0677,0 -21.2959,-9.9381 -21.2959,-21.2959 v -403.9125 z m 46.851,-92.992 c -34.0735,0 -63.1778,-28.3947 -63.1778,-63.1779 0,-34.0736 29.1043,-61.7582 63.1778,-61.7582 34.7833,0 61.7581,28.3946 61.7581,61.7582 0,34.7832 -26.9748,63.1779 -61.7581,63.1779"
     id="path14"
     inkscape:connector-curvature="0"
     style="stroke-width:7.0986371"
     inkscape:export-filename="G:\Users\suitedoalex\sites\android-logo-9.png"
     inkscape:export-xdpi="10.017572"
     inkscape:export-ydpi="10.017572" />
  <path
     d="m 3305.1688,2984.3112 c -75.9554,0 -127.0656,59.6285 -127.0656,136.2938 0,76.6653 51.1102,136.2939 127.0656,136.2939 75.9554,0 127.0656,-59.6286 127.0656,-136.2939 -0.7098,-76.6653 -51.1102,-136.2938 -127.0656,-136.2938 m -17.0367,-84.4738 c 61.0483,0 112.1585,31.234 136.2939,65.3074 v -269.7481 h 93.702 v 638.1674 h -71.6963 c -12.0677,0 -21.2959,-9.9381 -21.2959,-21.2959 v -35.4931 c -24.1354,34.0734 -74.5357,65.3074 -136.2938,65.3074 -116.4177,0 -205.1506,-99.3808 -205.1506,-220.7676 0,-121.3867 88.0231,-221.4775 204.4407,-221.4775"
     id="path16"
     inkscape:connector-curvature="0"
     style="stroke-width:7.0986371"
     inkscape:export-filename="G:\Users\suitedoalex\sites\android-logo-9.png"
     inkscape:export-xdpi="10.017572"
     inkscape:export-ydpi="10.017572" />
  <path
     style="fill:#3ddc84;stroke-width:7.0986371"
     d="m 2768.5118,1268.5706 244.9031,-423.78871 c 14.1972,-24.13541 5.6788,-55.36946 -18.4566,-69.56673 -24.1352,-14.19727 -55.3693,-5.67888 -69.5666,18.45654 l -247.7424,428.7577 c -189.5337,-86.6035 -402.4927,-134.8742 -628.9392,-134.8742 -227.1564,0 -439.4057,48.2707 -628.9394,134.8742 L 1172.0283,793.6717 c -14.1972,-24.13542 -45.4313,-32.65381 -69.5666,-18.45654 -24.1354,14.19727 -32.6538,45.43132 -18.4565,69.56673 l 244.903,423.78871 C 907.24905,1497.1467 620.46419,1922.3551 578.58219,2424.2287 H 3517.4181 c -41.8819,-501.8736 -329.3767,-927.082 -748.9063,-1155.6581 z M 1371.5,2005.4091 c -67.437,0 -122.0965,-54.6595 -122.0965,-122.0965 0,-67.437 54.6595,-122.0965 122.0965,-122.0965 67.4371,0 122.0966,54.6595 122.0966,122.0965 0,67.437 -54.6595,122.0965 -122.0966,122.0965 z m 1353.0003,0 c -67.437,0 -122.0966,-54.6595 -122.0966,-122.0965 0,-67.437 54.6596,-122.0965 122.0966,-122.0965 67.4371,0 122.0965,54.6595 122.0965,122.0965 0,67.437 -54.6594,122.0965 -122.0965,122.0965 z"
     id="path18"
     inkscape:connector-curvature="0"
     inkscape:export-filename="G:\Users\suitedoalex\sites\android-logo-9.png"
     inkscape:export-xdpi="10.017572"
     inkscape:export-ydpi="10.017572" />
  <rect
     style="fill:none;stroke-width:9.48392963"
     x="4791.3823"
     y="544.4585"
     width="9920.1904"
     height="2930.5342"
     id="rect20" />
  <path
     d="m 6036.621,1790.6455 c 117.6008,0 215.2852,60.6972 261.7565,126.1363 v -110.0136 h 179.2462 v 816.5663 h -128.9814 c -28.4518,0 -51.2132,-22.7614 -51.2132,-51.2132 v -58.8004 c -45.5229,66.3875 -143.2073,127.0847 -260.8081,127.0847 -223.8207,0 -393.583,-191.5754 -393.583,-424.88 0,-233.3047 169.7623,-424.8801 393.583,-424.8801 m 32.2454,163.1236 c -145.1041,0 -243.737,114.7556 -243.737,261.7565 0,147.0009 97.6845,261.7564 243.737,261.7564 145.1041,0 243.737,-114.7555 243.737,-261.7564 0,-147.0009 -97.6845,-261.7565 -243.737,-261.7565"
     id="path22"
     inkscape:connector-curvature="0"
     style="stroke-width:9.48392963"
     inkscape:export-filename="G:\Users\suitedoalex\sites\android-logo-8.png"
     inkscape:export-xdpi="4.6700001"
     inkscape:export-ydpi="4.6700001" />
  <path
     d="m 6681.5282,1806.7682 h 180.1947 v 110.962 c 49.3164,-81.5618 142.2589,-127.0847 248.4789,-127.0847 189.6786,0 312.0213,133.7234 312.0213,341.4215 v 491.2675 h -128.9814 c -28.4518,0 -51.2132,-22.7614 -51.2132,-51.2132 v -410.6541 c 0,-128.9815 -65.4392,-207.6981 -169.7624,-207.6981 -119.4975,0 -210.5432,92.9425 -210.5432,267.4468 v 402.1186 h -128.9815 c -28.4517,0 -51.2132,-22.7614 -51.2132,-51.2132 z"
     id="path24"
     inkscape:connector-curvature="0"
     style="stroke-width:9.48392963"
     inkscape:export-filename="G:\Users\suitedoalex\sites\android-logo-8.png"
     inkscape:export-xdpi="4.6700001"
     inkscape:export-ydpi="4.6700001" />
  <path
     d="m 7958.0651,1790.6455 c 117.6007,0 215.2852,60.6972 261.7565,126.1363 v -517.8226 h 179.2462 v 1225.3237 h -128.9814 c -28.4518,0 -51.2132,-22.7614 -51.2132,-51.2132 v -58.8004 c -45.5229,65.4391 -144.1557,126.1363 -261.7565,126.1363 -223.8207,0 -393.583,-191.5754 -393.583,-424.88 0.9484,-233.3047 170.7107,-424.8801 394.5314,-424.8801 m 32.2454,163.1236 c -145.1041,0 -243.737,114.7556 -243.737,261.7565 0,147.0009 97.6845,261.7564 243.737,261.7564 145.1041,0 243.737,-114.7555 243.737,-261.7564 0,-147.0009 -98.6329,-261.7565 -243.737,-261.7565"
     id="path26"
     inkscape:connector-curvature="0"
     style="stroke-width:9.48392963"
     inkscape:export-filename="G:\Users\suitedoalex\sites\android-logo-8.png"
     inkscape:export-xdpi="4.6700001"
     inkscape:export-ydpi="4.6700001" />
  <path
     d="m 8602.9723,1806.7682 h 179.2463 v 145.1041 c 31.297,-92.9425 122.3427,-153.6396 215.2852,-153.6396 22.7614,0 45.5228,1.8968 70.1811,6.6387 v 184.9366 c -31.297,-9.4839 -56.9036,-15.1742 -90.0974,-15.1742 -103.3748,0 -196.3173,86.3037 -196.3173,250.3757 v 398.325 h -128.9814 c -28.4518,0 -51.2133,-22.7614 -51.2133,-51.2132 v -765.3531 z"
     id="path28"
     inkscape:connector-curvature="0"
     style="stroke-width:9.48392963"
     inkscape:export-filename="G:\Users\suitedoalex\sites\android-logo-8.png"
     inkscape:export-xdpi="4.6700001"
     inkscape:export-ydpi="4.6700001" />
  <path
     d="m 9553.262,2640.4056 c -241.8402,0 -427.7252,-187.7818 -427.7252,-424.88 0,-237.0983 185.885,-424.8801 427.7252,-424.8801 241.8402,0 427.7253,187.7818 427.7253,424.8801 0,237.0982 -185.8851,424.88 -427.7253,424.88 m 0,-166.9172 c 144.1558,0 244.6854,-112.8587 244.6854,-257.9628 0,-145.1042 -101.478,-257.9629 -244.6854,-257.9629 -145.1041,0 -246.5821,112.8587 -246.5821,257.9629 0,145.1041 101.478,257.9628 246.5821,257.9628"
     id="path30"
     inkscape:connector-curvature="0"
     style="stroke-width:9.48392963"
     inkscape:export-filename="G:\Users\suitedoalex\sites\android-logo-8.png"
     inkscape:export-xdpi="4.6700001"
     inkscape:export-ydpi="4.6700001" />
  <path
     d="m 10216.188,1628.4703 c -65.439,0 -120.445,-54.0584 -120.445,-120.4459 0,-65.4391 55.955,-119.4975 120.445,-119.4975 67.336,0 119.498,54.0584 119.498,119.4975 0,67.3359 -52.162,120.4459 -119.498,120.4459 m -89.149,178.2979 h 179.247 v 816.5663 h -128.033 c -28.452,0 -51.214,-22.7614 -51.214,-51.2132 z"
     id="path32"
     inkscape:connector-curvature="0"
     style="stroke-width:9.48392963"
     inkscape:export-filename="G:\Users\suitedoalex\sites\android-logo-8.png"
     inkscape:export-xdpi="4.6700001"
     inkscape:export-ydpi="4.6700001" />
  <path
     d="m 10847.818,1790.6455 c 117.601,0 215.285,60.6972 261.757,126.1363 v -517.8226 h 179.246 v 1225.3237 h -128.982 c -28.451,0 -51.213,-22.7614 -51.213,-51.2132 v -58.8004 c -45.523,65.4391 -144.156,126.1363 -261.756,126.1363 -223.821,0 -393.583,-191.5754 -393.583,-424.88 0.948,-233.3047 170.71,-424.8801 394.531,-424.8801 m 33.194,163.1236 c -145.104,0 -243.737,114.7556 -243.737,261.7565 0,147.0009 97.684,261.7564 243.737,261.7564 145.104,0 243.737,-114.7555 243.737,-261.7564 0,-147.0009 -98.633,-261.7565 -243.737,-261.7565"
     id="path34"
     inkscape:connector-curvature="0"
     style="stroke-width:9.48392963"
     inkscape:export-filename="G:\Users\suitedoalex\sites\android-logo-8.png"
     inkscape:export-xdpi="4.6700001"
     inkscape:export-ydpi="4.6700001" />
  <path
     class="logo-android__andy-icon "
     d="m 13271.91,2315.1068 c -50.264,0 -91.045,-40.7809 -91.045,-91.0457 0,-50.2648 40.781,-91.0457 91.045,-91.0457 50.265,0 91.046,40.7809 91.046,91.0457 0,50.2648 -40.781,91.0457 -91.046,91.0457 m -1002.451,0 c -50.265,0 -91.046,-40.7809 -91.046,-91.0457 0,-50.2648 40.781,-91.0457 91.046,-91.0457 50.265,0 91.046,40.7809 91.046,91.0457 0,50.2648 -40.781,91.0457 -91.046,91.0457 m 1034.697,-546.2743 182.091,-313.9181 c 10.433,-18.0194 3.794,-40.7809 -14.226,-51.2132 -18.019,-10.4323 -40.781,-3.7936 -51.213,14.2259 l -183.988,317.7116 c -140.362,-64.4907 -297.795,-100.5296 -465.661,-100.5296 -167.866,0 -326.247,36.0389 -466.609,99.5812 l -183.989,-317.7116 c -10.432,-18.0195 -33.193,-24.6582 -51.213,-14.2259 -18.019,10.4323 -24.658,33.1938 -14.226,51.2132 l 181.143,313.9181 c -311.073,169.7623 -524.461,484.6288 -555.758,857.3472 h 2178.459 c -30.349,-371.77 -242.789,-686.6365 -554.81,-856.3988"
     id="path36"
     style="fill:#3ddc84;fill-opacity:1;stroke-width:9.48392963"
     inkscape:connector-curvature="0"
     inkscape:export-filename="G:\Users\suitedoalex\sites\android-logo-8.png"
     inkscape:export-xdpi="4.6700001"
     inkscape:export-ydpi="4.6700001" />
</svg>
